<?xml version="1.0" encoding="UTF-8" standalone="no"?>
<svg
   xmlns:dc="http://purl.org/dc/elements/1.1/"
   xmlns:cc="http://creativecommons.org/ns#"
   xmlns:rdf="http://www.w3.org/1999/02/22-rdf-syntax-ns#"
   xmlns:svg="http://www.w3.org/2000/svg"
   xmlns="http://www.w3.org/2000/svg"
   viewBox="0 0 428.79999 428.79999"
   height="428.79999"
   width="428.79999"
   id="svg45"
   version="1.1">
  <metadata
     id="metadata51">
    <rdf:RDF>
      <cc:Work
         rdf:about="">
        <dc:format>image/svg+xml</dc:format>
        <dc:type
           rdf:resource="http://purl.org/dc/dcmitype/StillImage" />
        <dc:title></dc:title>
      </cc:Work>
    </rdf:RDF>
  </metadata>
  <defs
     id="defs49" />
  <path
     id="path267"
     d="m 166.62747,365.96754 c -1.07173,-1.70878 -2.59604,-16.68505 -5.29266,-51.99999 -3.2143,-42.09457 -3.57048,-49.93414 -2.35381,-51.80813 0.78848,-1.21447 12.12059,-13.21446 25.18247,-26.66667 13.06188,-13.45219 27.86739,-28.72373 32.90113,-33.93673 l 9.15226,-9.47821 -8.53333,6.21114 c -4.69333,3.41612 -24.41398,18.12132 -43.82366,32.6782 -19.91638,14.9369 -36.26437,26.46706 -37.52622,26.46706 -1.72667,0 -96.357174,-45.6879 -102.383454,-49.43105 -1.72871,-1.07377 -1.72871,-7.60721 0,-8.92119 3.10441,-2.35964 349.264224,-162.455992 351.253334,-162.452068 3.05637,0.0061 4.74666,2.027136 4.74666,5.675637 0,3.46948 -90.21127,291.689591 -91.95629,293.795341 -0.6077,0.73333 -2.18152,1.33333 -3.49737,1.33333 -1.31584,0 -16.95288,-6.96704 -34.74898,-15.48231 -25.61415,-12.25614 -32.61213,-15.20121 -33.58308,-14.13334 -0.6746,0.74195 -11.92554,13.82899 -25.00208,29.08232 -13.07655,15.25333 -24.72196,28.57333 -25.87871,29.6 -2.92656,2.59748 -6.84399,2.35612 -8.65621,-0.53334 z"
     style="fill:#d4d4d4;stroke-width:1.0666666" />
</svg>
