<?xml version="1.0" encoding="UTF-8" standalone="no"?>
<svg
   xmlns:dc="http://purl.org/dc/elements/1.1/"
   xmlns:cc="http://creativecommons.org/ns#"
   xmlns:rdf="http://www.w3.org/1999/02/22-rdf-syntax-ns#"
   xmlns:svg="http://www.w3.org/2000/svg"
   xmlns="http://www.w3.org/2000/svg"
   viewBox="0 0 746.66669 746.66669"
   height="746.66669"
   width="746.66669"
   id="svg83"
   version="1.1">
  <metadata
     id="metadata89">
    <rdf:RDF>
      <cc:Work
         rdf:about="">
        <dc:format>image/svg+xml</dc:format>
        <dc:type
           rdf:resource="http://purl.org/dc/dcmitype/StillImage" />
        <dc:title></dc:title>
      </cc:Work>
    </rdf:RDF>
  </metadata>
  <defs
     id="defs87" />
  <g
     transform="translate(-2.6987954,-9.8955845)"
     id="g93">
    <path
       id="path97"
       d="m 277.33334,639.27223 c -13.3178,-4.47248 -44.73348,-19.98086 -58,-28.63174 -12.52279,-8.16591 -26.83275,-19.30267 -35.51693,-27.64117 -3.40099,-3.26558 -7.53367,-6.62636 -9.18375,-7.46837 -1.65007,-0.84201 -2.88076,-2.01525 -2.73485,-2.6072 0.14589,-0.59195 -3.35659,-4.94803 -7.78328,-9.68019 -4.42671,-4.73216 -10.53549,-11.89784 -13.57507,-15.92373 -3.03958,-4.02589 -6.15443,-7.31981 -6.92187,-7.31981 -0.76745,0 -1.04297,-0.35239 -0.61227,-0.7831 0.4307,-0.43069 -2.38954,-5.68069 -6.2672,-11.66666 -22.73925,-35.10272 -35.90365,-71.17298 -42.171882,-115.55025 -2.344832,-16.60074 -1.973044,-55.08357 0.702042,-72.66667 2.601558,-17.09978 7.02739,-35.245 12.60211,-51.66666 2.17829,-6.41667 3.67491,-11.66667 3.32583,-11.66667 -0.34908,0 0.002,-0.75 0.77921,-1.66667 0.77764,-0.91666 4.64333,-8.33375 8.59043,-16.48239 27.13154,-56.01217 71.95077,-101.01785 127.88601,-128.41803 66.87663,-32.759874 142.77666,-37.718202 214.21481,-13.99403 9.9,3.28773 18.4618,5.94633 19.02623,5.908 0.56441,-0.0383 1.76441,0.52741 2.66667,1.2572 0.90224,0.72979 8.23214,4.67488 16.28866,8.76686 54.35211,27.60593 97.54693,71.62231 124.11926,126.48 3.94709,8.14864 7.81279,15.56573 8.59043,16.48239 0.77764,0.91667 1.12829,1.66667 0.77921,1.66667 -0.34908,0 1.14753,5.25 3.32583,11.66667 10.6452,31.35798 14.8457,56.91726 14.8457,90.33333 0,41.34922 -7.0902,75.31334 -23.51981,112.66667 -10.26133,23.32955 -28.25369,51.21327 -45.0826,69.8669 -4.69723,5.20653 -8.93736,10.52544 -9.4225,11.81978 -0.48514,1.29434 -2.24848,2.87284 -3.91852,3.5078 -1.67004,0.63495 -5.88541,4.20024 -9.36749,7.92287 -3.48209,3.72263 -6.33107,6.48722 -6.33107,6.14352 0,-0.34368 -3.36877,2.11902 -7.48616,5.47267 -4.11738,3.35367 -9.81738,7.64029 -12.66666,9.52587 -2.84928,1.88556 -5.18051,3.94856 -5.18051,4.58445 0,0.63588 -0.45,1.02243 -1,0.85899 -0.55,-0.16343 -5.43731,2.31402 -10.86067,5.50545 -13.9819,8.22779 -37.70205,19.38845 -49.68221,23.37619 -12.23644,4.07304 -17.19451,3.52274 -21.94734,-2.43594 l -3.30902,-4.14854 0.0972,-47.41355 c 0.0535,-26.07746 -0.29792,-47.80864 -0.78082,-48.29154 -0.48288,-0.48289 -1.08109,-3.14156 -1.32934,-5.90816 -0.24826,-2.7666 -1.0708,-5.23665 -1.82788,-5.48901 -0.7571,-0.25236 -1.05128,-0.98509 -0.65376,-1.62831 1.01301,-1.6391 -5.74944,-14.60277 -7.61751,-14.60277 -0.8432,0 -1.12761,-0.40549 -0.63201,-0.90108 0.4956,-0.4956 -0.37162,-2.2558 -1.92712,-3.91157 l -2.8282,-3.01048 4.48268,-0.72646 c 18.14762,-2.94094 29.63489,-5.4009 38.98133,-8.3477 11.51188,-3.62955 26.18618,-10.45716 27.81426,-12.94135 0.53877,-0.82208 0.98877,-1.00638 1,-0.40954 0.0348,1.84679 15.06393,-9.35581 22.00297,-16.40078 3.62112,-3.6764 6.21569,-6.68438 5.76571,-6.68438 -0.44999,0 0.82889,-1.76317 2.84196,-3.91817 7.39066,-7.91173 21.48429,-41.15649 19.56645,-46.15432 -0.33823,-0.88141 -0.0645,-2.15297 0.60817,-2.82569 2.99914,-2.99914 4.78016,-43.60382 2.5339,-57.76849 -2.89184,-18.23544 -10.92055,-36.42313 -22.22804,-50.3539 l -4.6163,-5.68724 2.35544,-8.97943 c 3.23027,-12.31449 3.20742,-33.7996 -0.0504,-47.31276 -1.37013,-5.68334 -3.03694,-10.33334 -3.70401,-10.33334 -0.66708,0 -0.84972,-0.5876 -0.40585,-1.30577 0.44385,-0.71819 0.20665,-2.42755 -0.52711,-3.7986 -2.12744,-3.97516 -14.64771,-3.73439 -28.27601,0.54377 -11.96331,3.7555 -38.72751,16.77492 -42.7467,20.79411 -1.33824,1.33824 -2.72687,2.44957 -3.08583,2.46964 -0.35897,0.02 -1.58254,0.39329 -2.71906,0.82941 -1.13651,0.43614 -8.19282,-0.46277 -15.68066,-1.99754 -21.53725,-4.4145 -32.93093,-5.53502 -56.28089,-5.53502 -23.34996,0 -34.74364,1.12052 -56.28095,5.53502 -7.48784,1.53477 -14.68784,2.37853 -16,1.87501 -1.31215,-0.50352 -2.53572,-0.87676 -2.71905,-0.82943 -0.18334,0.0473 -1.42826,-1.00885 -2.7665,-2.34709 -4.00301,-4.00301 -30.76272,-17.03215 -42.63567,-20.75903 -13.65994,-4.28782 -26.16181,-4.73672 -28.15577,-1.01098 -0.72513,1.35493 -2.65345,7.50493 -4.28515,13.66666 -3.82709,14.45212 -4.11257,36.36275 -0.64514,49.51594 l 2.36714,8.97943 -4.61629,5.68724 c -20.56643,25.33773 -27.64828,58.054 -21.512,99.37972 5.29244,35.64283 18.48853,60.2784 41.96579,78.34531 8.811,6.78049 25.02984,15.60975 26.73658,14.55492 0.66752,-0.41255 1.21367,-0.18524 1.21367,0.50512 0,2.47603 28.35726,10.07949 48.32547,12.95756 l 6.32547,0.91171 -3.39932,4.03985 c -4.98396,5.92309 -9.75723,15.99512 -11.70091,24.68993 l -1.70709,7.63646 -9.25514,3.19842 c -6.89257,2.38196 -12.3184,3.23287 -21.25514,3.33334 -14.1053,0.15857 -23.06054,-2.44392 -32.06773,-9.31927 -3.26276,-2.49052 -5.93228,-4.15871 -5.93228,-3.70709 0,0.45161 -0.8934,0.0797 -1.98532,-0.82655 -1.09192,-0.90623 -1.68213,-2.13823 -1.31158,-2.7378 0.37056,-0.59957 0.0544,-1.47295 -0.70274,-1.94083 -0.75705,-0.46789 -4.30441,-5.15934 -7.88302,-10.42546 -3.57862,-5.26612 -8.51899,-11.46512 -10.97862,-13.77555 -6.18037,-5.80549 -14.55017,-11.24164 -15.96345,-10.36819 -0.6464,0.3995 -1.17527,0.1192 -1.17527,-0.623 0,-2.00229 -8.9674,-4.12545 -17.46001,-4.13392 -5.74073,-0.005 -8.00908,0.59927 -9.8424,2.62507 -2.21891,2.45185 -2.23331,2.86001 -0.20992,5.94809 1.19485,1.82358 5.70749,5.71619 10.02808,8.65026 11.69217,7.94 19.23505,17.45689 28.23649,35.62614 6.32231,12.7615 9.56042,17.64623 15.2897,23.06474 7.34537,6.94694 23.37764,15.67305 25.9148,14.105 0.75713,-0.46792 1.3766,-0.27735 1.3766,0.42352 0,0.70088 5.25,2.02322 11.66666,2.93856 9.16661,1.3076 14.60506,1.32441 25.37878,0.0784 7.54167,-0.8722 14.59167,-1.92332 15.66667,-2.33584 1.67912,-0.64431 1.95456,3.213 1.95456,27.3716 v 28.12163 l -3.66667,3.92502 c -5.19789,5.56416 -9.89343,6.00971 -21.66667,2.05592 z"
       style="fill:#d5d5d5;stroke-width:1.33333337" />
    <path
       id="path95"
       d="m 277.33334,639.27223 c -13.32176,-4.47381 -44.73708,-19.98284 -58,-28.63326 -23.43919,-15.28766 -49.57413,-39.04662 -66.3364,-60.30562 -4.48119,-5.68333 -8.73871,-10.33333 -9.46116,-10.33333 -0.72246,0 -0.96116,-0.35239 -0.53046,-0.7831 0.4307,-0.43069 -2.38954,-5.68069 -6.2672,-11.66666 -22.73925,-35.10272 -35.90365,-71.17298 -42.171882,-115.55025 -2.343568,-16.59178 -1.97288,-55.08176 0.699834,-72.66667 8.868848,-58.35185 34.629528,-110.9432 74.692218,-152.48687 75.71369,-78.51255 188.47788,-106.021898 292.70839,-71.40758 9.9,3.28773 18.4618,5.94633 19.02623,5.908 0.56441,-0.0383 1.76441,0.52741 2.66667,1.2572 0.90224,0.72979 8.23214,4.67488 16.28866,8.76686 54.35211,27.60593 97.54693,71.62231 124.11926,126.48 3.94709,8.14864 7.81279,15.56573 8.59043,16.48239 0.77764,0.91667 1.12829,1.66667 0.77921,1.66667 -0.34908,0 1.14753,5.25 3.32583,11.66667 10.6452,31.35798 14.8457,56.91726 14.8457,90.33333 0,32.77652 -4.02386,58.4141 -13.70716,87.33334 -19.72358,58.90464 -59.07375,109.95783 -111.26816,144.36011 -14.98924,9.87968 -44.50971,24.58247 -58.90818,29.33944 -12.95588,4.28037 -17.77609,3.80703 -22.58308,-2.21767 l -3.31004,-4.14854 0.0995,-46.32035 c 0.0792,-36.8865 -0.31109,-48.09052 -1.91627,-55.01191 -2.2631,-9.75835 -6.86033,-19.59205 -12.03316,-25.73963 l -3.46565,-4.11868 4.3918,-0.7094 c 17.90533,-2.89222 29.55852,-5.38844 38.89045,-8.33066 11.51189,-3.62955 26.18618,-10.45716 27.81426,-12.94135 0.53877,-0.82208 0.98877,-1.00638 1,-0.40954 0.0348,1.84679 15.06393,-9.35581 22.00297,-16.40078 3.62112,-3.6764 6.2157,-6.68438 5.76571,-6.68438 -0.44999,0 0.82889,-1.76317 2.84196,-3.91817 7.39067,-7.91173 21.48429,-41.15649 19.56645,-46.15432 -0.33822,-0.88141 -0.0645,-2.15297 0.60818,-2.82569 2.99913,-2.99914 4.78016,-43.60382 2.53389,-57.76849 -2.89184,-18.23544 -10.92055,-36.42313 -22.22804,-50.3539 l -4.61629,-5.68724 2.35544,-8.97943 c 3.23026,-12.31449 3.20741,-33.7996 -0.0504,-47.31276 -1.37014,-5.68334 -3.03695,-10.33334 -3.70402,-10.33334 -0.66708,0 -0.84972,-0.5876 -0.40585,-1.30577 0.44385,-0.71819 0.15816,-2.51819 -0.63489,-4 -2.12456,-3.96979 -14.209,-3.63636 -28.27926,0.78025 -11.87294,3.72688 -38.63265,16.75602 -42.63567,20.75903 -1.33824,1.33824 -2.72686,2.44957 -3.08582,2.46964 -0.35898,0.02 -1.58255,0.39329 -2.71907,0.82941 -1.13651,0.43614 -8.19281,-0.46277 -15.68065,-1.99754 -21.6501,-4.43762 -32.96628,-5.5368 -56.71077,-5.5086 -23.73868,0.0281 -32.39629,0.87748 -55.584,5.45265 l -14.68048,2.8966 -7.31952,-4.67772 c -21.04049,-13.44648 -47.57611,-23.69795 -61.3414,-23.69795 -9.27593,0 -9.18877,-0.10426 -13.48783,16.13016 -3.82709,14.45212 -4.11257,36.36275 -0.64514,49.51594 l 2.36714,8.97943 -4.61629,5.68724 c -20.56643,25.33773 -27.64828,58.054 -21.512,99.37972 9.24588,62.26787 44.34091,94.74974 114.2182,105.71358 l 10.30216,1.61641 -3.37601,4.01217 c -4.96196,5.89696 -9.737,15.98128 -11.67783,24.66224 l -1.7073,7.63646 -8.58826,2.9157 c -17.32162,5.88068 -33.11625,5.3681 -47.25492,-1.53358 -8.5752,-4.18592 -16.30684,-11.6771 -24.50739,-23.7452 -3.60168,-5.30031 -8.56093,-11.52728 -11.02056,-13.83771 -6.18037,-5.80549 -14.55017,-11.24164 -15.96345,-10.36819 -0.6464,0.3995 -1.17527,0.1192 -1.17527,-0.623 0,-2.00229 -8.9674,-4.12545 -17.46001,-4.13392 -5.74073,-0.005 -8.00908,0.59927 -9.8424,2.62507 -2.21891,2.45185 -2.23331,2.86001 -0.20992,5.94809 1.19485,1.82358 5.70749,5.71619 10.02808,8.65026 11.69217,7.94 19.23505,17.45689 28.23649,35.62614 6.32231,12.7615 9.56042,17.64623 15.2897,23.06474 7.34537,6.94694 23.37764,15.67305 25.9148,14.105 0.75713,-0.46792 1.3766,-0.27735 1.3766,0.42352 0,0.70088 5.25,2.02322 11.66666,2.93856 9.16661,1.3076 14.60506,1.32441 25.37878,0.0784 7.54167,-0.8722 14.59167,-1.92332 15.66667,-2.33584 1.67912,-0.64431 1.95456,3.213 1.95456,27.3716 v 28.12163 l -3.66667,3.92502 c -5.19789,5.56416 -9.89343,6.00971 -21.66667,2.05592 z"
       style="fill:#d4d4d4;stroke-width:1.33333337" />
  </g>
</svg>
